<svg height="511pt" viewBox="-41 0 511 511.99961" width="511pt" xmlns="http://www.w3.org/2000/svg">
	<path d="m264.179688 487.910156h-98.574219l13.863281-147.5h70.847656zm0 0" fill="#0050c3"/>
	<path d="m264.179688 487.910156h-49.289063v-147.5h35.425781zm0 0" fill="#1b3b6b"/>
	<path d="m328.59375 496.269531c0 8.683594-7.035156 15.730469-15.730469 15.730469h-195.945312c-8.691407 0-15.726563-7.046875-15.726563-15.730469 0-8.683593 7.035156-15.730469 15.726563-15.730469h195.945312c8.695313 0 15.730469 7.046876 15.730469 15.730469zm0 0" fill="#fff261"/>
	<path d="m328.59375 496.269531c0 8.683594-7.035156 15.730469-15.730469 15.730469h-97.972656v-31.460938h97.972656c8.695313 0 15.730469 7.046876 15.730469 15.730469zm0 0" fill="#ffb64c"/>
	<path d="m429.285156 143.5625v216.332031c0 15.445313-12.523437 27.964844-27.96875 27.964844h-372.847656c-15.449219 0-27.96875-12.519531-27.96875-27.964844v-216.332031c0-15.449219 12.519531-27.96875 27.96875-27.96875h372.847656c15.449219 0 27.96875 12.519531 27.96875 27.96875zm0 0" fill="#cdebfc"/>
	<path d="m429.285156 143.5625v216.332031c0 15.445313-12.523437 27.964844-27.96875 27.964844h-186.425781v-272.265625h186.425781c15.449219 0 27.96875 12.519531 27.96875 27.96875zm0 0" fill="#a3d4ff"/>
	<path d="m331.289062 308.421875c-8.6875 0-15.730468 7.042969-15.730468 15.730469v16.253906c0 8.683594 7.042968 15.726562 15.730468 15.726562s15.730469-7.042968 15.730469-15.726562v-16.253906c0-8.6875-7.042969-15.730469-15.730469-15.730469zm0 0" fill="#cdebfc"/>
	<path d="m373.757812 308.421875c-8.6875 0-15.726562 7.042969-15.726562 15.730469v16.253906c0 8.683594 7.039062 15.726562 15.726562 15.726562s15.730469-7.042968 15.730469-15.726562v-16.253906c0-8.6875-7.042969-15.730469-15.730469-15.730469zm0 0" fill="#cdebfc"/>
	<path d="m330.332031 115.484375c0 42.582031-23.058593 79.78125-57.375 99.789063-12.007812 7.003906-19.464843 19.792968-19.464843 33.703124v48.957032c0 5.925781-4.804688 10.730468-10.71875 10.730468h-55.753907c-5.921875 0-10.726562-4.804687-10.726562-10.730468v-48.957032c0-13.839843-7.34375-26.660156-19.304688-33.613281-34.785156-20.207031-58.042969-58.046875-57.523437-101.296875.769531-64.402344 56.089844-114.78125 115.425781-114.0585935 66.902344.8281255 115.441406 54.0624995 115.441406 115.4765625zm0 0" fill="#fff261"/>
	<path d="m330.332031 115.484375c0 42.582031-23.058593 79.78125-57.375 99.789063-12.007812 7.003906-19.464843 19.792968-19.464843 33.703124v48.957032c0 5.925781-4.804688 10.730468-10.71875 10.730468h-27.882813v-308.6562495c66.902344.8281255 115.441406 54.0624995 115.441406 115.4765625zm0 0" fill="#ffb64c"/>
	<path d="m253.492188 257.234375v40.699219c0 5.925781-4.804688 10.730468-10.71875 10.730468h-55.753907c-5.921875 0-10.726562-4.804687-10.726562-10.730468v-40.699219zm0 0" fill="#ff9100"/>
	<path d="m253.492188 257.234375v40.699219c0 5.925781-4.804688 10.730468-10.71875 10.730468h-27.882813v-51.429687zm0 0" fill="#ff641a"/>
	<path d="m271.632812 91.746094-56.742187 56.730468-5.304687 5.304688c-6.132813 6.144531-16.097657 6.144531-22.242188 0l-29.191406-29.191406c-6.148438-6.148438-6.148438-16.109375 0-22.242188 6.144531-6.144531 16.09375-6.144531 22.238281 0l18.078125 18.066406 50.921875-50.921874c6.144531-6.144532 16.097656-6.132813 22.242187 0 6.144532 6.144531 6.144532 16.109374 0 22.253906zm0 0" fill="#ff9100"/>
	<path d="m271.632812 91.746094-56.742187 56.730468v-44.484374l34.5-34.5c6.144531-6.144532 16.097656-6.132813 22.242187 0 6.144532 6.144531 6.144532 16.109374 0 22.253906zm0 0" fill="#ff641a"/>
</svg>
